{"asset":{"version":"2.0","generator":"Blockbench 5.0.7 glTF exporter"},"scenes":[{"nodes":[0],"name":"blockbench_export"}],"scene":0,"nodes":[{"translation":[0,0,0.171875],"name":"cylinder","mesh":0}],"bufferViews":[{"buffer":0,"byteOffset":0,"byteLength":10488,"target":34962,"byteStride":12},{"buffer":0,"byteOffset":10488,"byteLength":10488,"target":34962,"byteStride":12},{"buffer":0,"byteOffset":20976,"byteLength":6992,"target":34962,"byteStride":8},{"buffer":0,"byteOffset":27968,"byteLength":2508,"target":34963}],"buffers":[{"byteLength":30476,"uri":"data:application/octet-stream;base64,"}],"accessors":[{"bufferView":0,"componentType":5126,"count":874,"max":[1.21875,0.5531378388404846,1.5274584293365479],"min":[-1.21875,-0.38436219096183777,-1.8475415706634521],"type":"VEC3"},{"bufferView":1,"componentType":5126,"count":874,"max":[0.9993065595626831,1,1],"min":[-0.9993065595626831,-0.9999751448631287,-0.9515048861503601],"type":"VEC3"},{"bufferView":2,"componentType":5126,"count":874,"max":[0.9856584668159485,0.9791848659515381],"min":[3.608224830031759e-16,0],"type":"VEC2"},{"bufferView":3,"componentType":5123,"count":1254,"max":[873],"min":[0],"type":"SCALAR"}],"materials":[{"pbrMetallicRoughness":{"metallicFactor":0,"roughnessFactor":1,"baseColorTexture":{"index":0}},"alphaMode":"MASK","alphaCutoff":0.05,"doubleSided":true}],"textures":[{"sampler":0,"source":0,"name":"texture.png"}],"samplers":[{"magFilter":9728,"minFilter":9728,"wrapS":33071,"wrapT":33071}],"images":[{"mimeType":"image/png","uri":"data:image/png;base64,"}],"meshes":[{"primitives":[{"mode":4,"attributes":{"POSITION":0,"NORMAL":1,"TEXCOORD_0":2},"indices":3,"material":0}]}]}