{
    "asset" : {
        "generator" : "Khronos glTF Blender I/O v1.5.17",
        "version" : "2.0"
    },
    "scene" : 0,
    "scenes" : [
        {
            "name" : "Scene",
            "nodes" : [
                0,
                1,
                2,
                3,
                4,
                5,
                6,
                7
            ]
        }
    ],
    "nodes" : [
        {
            "mesh" : 0,
            "name" : "Body",
            "rotation" : [
                0,
                -0.7071068286895752,
                0.7071068286895752,
                -1.1520232590100932e-07
            ],
            "scale" : [
                0.12309926748275757,
                0.12309926748275757,
                0.13154427707195282
            ],
            "translation" : [
                0,
                -0.02225435897707939,
                -1.3260602951049805
            ]
        },
        {
            "mesh" : 1,
            "name" : "Speen",
            "rotation" : [
                0,
                -1,
                0,
                -1.6292068494294654e-07
            ],
            "translation" : [
                0,
                -0.0179901085793972,
                -1.7508585453033447
            ]
        },
        {
            "mesh" : 2,
            "name" : "Rudder",
            "rotation" : [
                0,
                -0.7071068286895752,
                0.7071068286895752,
                -1.1520232590100932e-07
            ],
            "scale" : [
                0.12309926748275757,
                0.12309926748275757,
                0.13154427707195282
            ],
            "translation" : [
                0,
                0.33003896474838257,
                0.43263983726501465
            ]
        },
        {
            "mesh" : 3,
            "name" : "FlapR",
            "rotation" : [
                0,
                -1,
                0,
                -1.6292068494294654e-07
            ],
            "translation" : [
                0.39666032791137695,
                -0.0038326717913150787,
                -0.8345341682434082
            ]
        },
        {
            "mesh" : 4,
            "name" : "ElevatorR",
            "rotation" : [
                0,
                -1,
                0,
                -1.6292068494294654e-07
            ],
            "translation" : [
                0.15949095785617828,
                0.0849408283829689,
                0.378509521484375
            ]
        },
        {
            "mesh" : 5,
            "name" : "ElevatorL",
            "rotation" : [
                0,
                -1,
                0,
                -1.6292068494294654e-07
            ],
            "translation" : [
                -0.1594911366701126,
                0.0849408283829689,
                0.378509521484375
            ]
        },
        {
            "mesh" : 6,
            "name" : "FlapL",
            "rotation" : [
                0,
                -1,
                0,
                -1.6292068494294654e-07
            ],
            "translation" : [
                -0.39666032791137695,
                -0.0038326717913150787,
                -0.834534227848053
            ]
        },
        {
            "mesh" : 7,
            "name" : "Speen2",
            "rotation" : [
                0,
                -0.7071068286895752,
                0.7071068286895752,
                -1.1520232590100932e-07
            ],
            "scale" : [
                0.2771407961845398,
                0.2771407961845398,
                0.2771407961845398
            ],
            "translation" : [
                0,
                -0.01917395368218422,
                -1.747913122177124
            ]
        }
    ],
    "materials" : [
        {
            "doubleSided" : true,
            "name" : "Material",
            "pbrMetallicRoughness" : {
                "baseColorTexture" : {
                    "index" : 0
                },
                "metallicFactor" : 0.6000000238418579,
                "roughnessFactor" : 0.5
            }
        }
    ],
    "meshes" : [
        {
            "name" : "Circle",
            "primitives" : [
                {
                    "attributes" : {
                        "POSITION" : 0,
                        "NORMAL" : 1,
                        "TEXCOORD_0" : 2
                    },
                    "indices" : 3,
                    "material" : 0
                }
            ]
        },
        {
            "name" : "Circle.001",
            "primitives" : [
                {
                    "attributes" : {
                        "POSITION" : 4,
                        "NORMAL" : 5,
                        "TEXCOORD_0" : 6
                    },
                    "indices" : 7,
                    "material" : 0
                }
            ]
        },
        {
            "name" : "Circle.004",
            "primitives" : [
                {
                    "attributes" : {
                        "POSITION" : 8,
                        "NORMAL" : 9,
                        "TEXCOORD_0" : 10
                    },
                    "indices" : 11,
                    "material" : 0
                }
            ]
        },
        {
            "name" : "Circle.005",
            "primitives" : [
                {
                    "attributes" : {
                        "POSITION" : 12,
                        "NORMAL" : 13,
                        "TEXCOORD_0" : 14
                    },
                    "indices" : 15,
                    "material" : 0
                }
            ]
        },
        {
            "name" : "Circle.006",
            "primitives" : [
                {
                    "attributes" : {
                        "POSITION" : 16,
                        "NORMAL" : 17,
                        "TEXCOORD_0" : 18
                    },
                    "indices" : 19,
                    "material" : 0
                }
            ]
        },
        {
            "name" : "Circle.007",
            "primitives" : [
                {
                    "attributes" : {
                        "POSITION" : 20,
                        "NORMAL" : 21,
                        "TEXCOORD_0" : 22
                    },
                    "indices" : 23,
                    "material" : 0
                }
            ]
        },
        {
            "name" : "Circle.003",
            "primitives" : [
                {
                    "attributes" : {
                        "POSITION" : 24,
                        "NORMAL" : 25,
                        "TEXCOORD_0" : 26,
                        "COLOR_0" : 27
                    },
                    "indices" : 28,
                    "material" : 0
                }
            ]
        },
        {
            "name" : "Circle.009",
            "primitives" : [
                {
                    "attributes" : {
                        "POSITION" : 29,
                        "NORMAL" : 30,
                        "TEXCOORD_0" : 31
                    },
                    "indices" : 32
                }
            ]
        }
    ],
    "textures" : [
        {
            "sampler" : 0,
            "source" : 0
        }
    ],
    "images" : [
        {
            "bufferView" : 4,
            "mimeType" : "image/png",
            "name" : "a29_textureA"
        }
    ],
    "accessors" : [
        {
            "bufferView" : 0,
            "componentType" : 5126,
            "count" : 485,
            "max" : [
                9.641962051391602,
                2.956749439239502,
                1.2202118635177612
            ],
            "min" : [
                -9.641962051391602,
                -15.386566162109375,
                -4.010605335235596
            ],
            "type" : "VEC3"
        },
        {
            "bufferView" : 1,
            "componentType" : 5126,
            "count" : 485,
            "type" : "VEC3"
        },
        {
            "bufferView" : 2,
            "componentType" : 5126,
            "count" : 485,
            "type" : "VEC2"
        },
        {
            "bufferView" : 3,
            "componentType" : 5123,
            "count" : 1479,
            "type" : "SCALAR"
        },
        {
            "bufferView" : 5,
            "componentType" : 5126,
            "count" : 19,
            "max" : [
                0.049471642822027206,
                0.05807419493794441,
                0.06530365347862244
            ],
            "min" : [
                -0.049471642822027206,
                -0.05763841047883034,
                -0.06991180777549744
            ],
            "type" : "VEC3"
        },
        {
            "bufferView" : 6,
            "componentType" : 5126,
            "count" : 19,
            "type" : "VEC3"
        },
        {
            "bufferView" : 7,
            "componentType" : 5126,
            "count" : 19,
            "type" : "VEC2"
        },
        {
            "bufferView" : 8,
            "componentType" : 5123,
            "count" : 90,
            "type" : "SCALAR"
        },
        {
            "bufferView" : 9,
            "componentType" : 5126,
            "count" : 16,
            "max" : [
                0.14998336136341095,
                0.0005950927734375,
                0.9179340600967407
            ],
            "min" : [
                -0.14998336136341095,
                -0.809168815612793,
                -0.9179337024688721
            ],
            "type" : "VEC3"
        },
        {
            "bufferView" : 10,
            "componentType" : 5126,
            "count" : 16,
            "type" : "VEC3"
        },
        {
            "bufferView" : 11,
            "componentType" : 5126,
            "count" : 16,
            "type" : "VEC2"
        },
        {
            "bufferView" : 12,
            "componentType" : 5123,
            "count" : 36,
            "type" : "SCALAR"
        },
        {
            "bufferView" : 13,
            "componentType" : 5126,
            "count" : 14,
            "max" : [
                0.26341700553894043,
                0.015615753829479218,
                0
            ],
            "min" : [
                -0.2633262872695923,
                -0.02203533798456192,
                -0.16963693499565125
            ],
            "type" : "VEC3"
        },
        {
            "bufferView" : 14,
            "componentType" : 5126,
            "count" : 14,
            "type" : "VEC3"
        },
        {
            "bufferView" : 15,
            "componentType" : 5126,
            "count" : 14,
            "type" : "VEC2"
        },
        {
            "bufferView" : 16,
            "componentType" : 5123,
            "count" : 24,
            "type" : "SCALAR"
        },
        {
            "bufferView" : 17,
            "componentType" : 5126,
            "count" : 18,
            "max" : [
                0.11469665169715881,
                0.012198418378829956,
                0
            ],
            "min" : [
                -0.10842885076999664,
                -0.011737719178199768,
                -0.06768667697906494
            ],
            "type" : "VEC3"
        },
        {
            "bufferView" : 18,
            "componentType" : 5126,
            "count" : 18,
            "type" : "VEC3"
        },
        {
            "bufferView" : 19,
            "componentType" : 5126,
            "count" : 18,
            "type" : "VEC2"
        },
        {
            "bufferView" : 20,
            "componentType" : 5123,
            "count" : 24,
            "type" : "SCALAR"
        },
        {
            "bufferView" : 21,
            "componentType" : 5126,
            "count" : 18,
            "max" : [
                0.10842885076999664,
                0.012198418378829956,
                0
            ],
            "min" : [
                -0.11469665169715881,
                -0.011737719178199768,
                -0.06768667697906494
            ],
            "type" : "VEC3"
        },
        {
            "bufferView" : 22,
            "componentType" : 5126,
            "count" : 18,
            "type" : "VEC3"
        },
        {
            "bufferView" : 23,
            "componentType" : 5126,
            "count" : 18,
            "type" : "VEC2"
        },
        {
            "bufferView" : 24,
            "componentType" : 5123,
            "count" : 24,
            "type" : "SCALAR"
        },
        {
            "bufferView" : 25,
            "componentType" : 5126,
            "count" : 14,
            "max" : [
                0.2633262872695923,
                0.015615753829479218,
                0
            ],
            "min" : [
                -0.26341700553894043,
                -0.02203533798456192,
                -0.16963693499565125
            ],
            "type" : "VEC3"
        },
        {
            "bufferView" : 26,
            "componentType" : 5126,
            "count" : 14,
            "type" : "VEC3"
        },
        {
            "bufferView" : 27,
            "componentType" : 5126,
            "count" : 14,
            "type" : "VEC2"
        },
        {
            "bufferView" : 28,
            "componentType" : 5123,
            "count" : 14,
            "normalized" : true,
            "type" : "VEC4"
        },
        {
            "bufferView" : 29,
            "componentType" : 5123,
            "count" : 24,
            "type" : "SCALAR"
        },
        {
            "bufferView" : 30,
            "componentType" : 5126,
            "count" : 8,
            "max" : [
                0.9999999403953552,
                0,
                1
            ],
            "min" : [
                -1,
                0,
                -1
            ],
            "type" : "VEC3"
        },
        {
            "bufferView" : 31,
            "componentType" : 5126,
            "count" : 8,
            "type" : "VEC3"
        },
        {
            "bufferView" : 32,
            "componentType" : 5126,
            "count" : 8,
            "type" : "VEC2"
        },
        {
            "bufferView" : 33,
            "componentType" : 5123,
            "count" : 18,
            "type" : "SCALAR"
        }
    ],
    "bufferViews" : [
        {
            "buffer" : 0,
            "byteLength" : 5820,
            "byteOffset" : 0
        },
        {
            "buffer" : 0,
            "byteLength" : 5820,
            "byteOffset" : 5820
        },
        {
            "buffer" : 0,
            "byteLength" : 3880,
            "byteOffset" : 11640
        },
        {
            "buffer" : 0,
            "byteLength" : 2958,
            "byteOffset" : 15520
        },
        {
            "buffer" : 0,
            "byteLength" : 5233,
            "byteOffset" : 18480
        },
        {
            "buffer" : 0,
            "byteLength" : 228,
            "byteOffset" : 23716
        },
        {
            "buffer" : 0,
            "byteLength" : 228,
            "byteOffset" : 23944
        },
        {
            "buffer" : 0,
            "byteLength" : 152,
            "byteOffset" : 24172
        },
        {
            "buffer" : 0,
            "byteLength" : 180,
            "byteOffset" : 24324
        },
        {
            "buffer" : 0,
            "byteLength" : 192,
            "byteOffset" : 24504
        },
        {
            "buffer" : 0,
            "byteLength" : 192,
            "byteOffset" : 24696
        },
        {
            "buffer" : 0,
            "byteLength" : 128,
            "byteOffset" : 24888
        },
        {
            "buffer" : 0,
            "byteLength" : 72,
            "byteOffset" : 25016
        },
        {
            "buffer" : 0,
            "byteLength" : 168,
            "byteOffset" : 25088
        },
        {
            "buffer" : 0,
            "byteLength" : 168,
            "byteOffset" : 25256
        },
        {
            "buffer" : 0,
            "byteLength" : 112,
            "byteOffset" : 25424
        },
        {
            "buffer" : 0,
            "byteLength" : 48,
            "byteOffset" : 25536
        },
        {
            "buffer" : 0,
            "byteLength" : 216,
            "byteOffset" : 25584
        },
        {
            "buffer" : 0,
            "byteLength" : 216,
            "byteOffset" : 25800
        },
        {
            "buffer" : 0,
            "byteLength" : 144,
            "byteOffset" : 26016
        },
        {
            "buffer" : 0,
            "byteLength" : 48,
            "byteOffset" : 26160
        },
        {
            "buffer" : 0,
            "byteLength" : 216,
            "byteOffset" : 26208
        },
        {
            "buffer" : 0,
            "byteLength" : 216,
            "byteOffset" : 26424
        },
        {
            "buffer" : 0,
            "byteLength" : 144,
            "byteOffset" : 26640
        },
        {
            "buffer" : 0,
            "byteLength" : 48,
            "byteOffset" : 26784
        },
        {
            "buffer" : 0,
            "byteLength" : 168,
            "byteOffset" : 26832
        },
        {
            "buffer" : 0,
            "byteLength" : 168,
            "byteOffset" : 27000
        },
        {
            "buffer" : 0,
            "byteLength" : 112,
            "byteOffset" : 27168
        },
        {
            "buffer" : 0,
            "byteLength" : 112,
            "byteOffset" : 27280
        },
        {
            "buffer" : 0,
            "byteLength" : 48,
            "byteOffset" : 27392
        },
        {
            "buffer" : 0,
            "byteLength" : 96,
            "byteOffset" : 27440
        },
        {
            "buffer" : 0,
            "byteLength" : 96,
            "byteOffset" : 27536
        },
        {
            "buffer" : 0,
            "byteLength" : 64,
            "byteOffset" : 27632
        },
        {
            "buffer" : 0,
            "byteLength" : 36,
            "byteOffset" : 27696
        }
    ],
    "samplers" : [
        {
            "magFilter" : 9728,
            "minFilter" : 9984
        }
    ],
    "buffers" : [
        {
            "byteLength" : 27732,
            "uri" : "data:application/octet-stream;base64,"
        }
    ]
}
