{"asset":{"version":"2.0","generator":"Blockbench 5.0.7 glTF exporter"},"scenes":[{"nodes":[0,1,5],"name":"blockbench_export"}],"scene":0,"nodes":[{"translation":[0,0.013329375,-0.214446875],"name":"Aircraft","mesh":0},{"translation":[0,-0.009555625,-1.024909375],"name":"Prop","mesh":1},{"translation":[0,0,0.775893125],"name":"BackWheel","mesh":2},{"translation":[-0.375,-0.09375,-0.49732125],"name":"LeftWheel","mesh":3},{"translation":[0.375,-0.307143125,-0.49732125],"name":"RightWheel","mesh":4},{"name":"LandingGear","children":[2,3,4]}],"bufferViews":[{"buffer":0,"byteOffset":0,"byteLength":7104,"target":34962,"byteStride":12},{"buffer":0,"byteOffset":7104,"byteLength":7104,"target":34962,"byteStride":12},{"buffer":0,"byteOffset":14208,"byteLength":4736,"target":34962,"byteStride":8},{"buffer":0,"byteOffset":18944,"byteLength":1716,"target":34963},{"buffer":0,"byteOffset":20660,"byteLength":2556,"target":34962,"byteStride":12},{"buffer":0,"byteOffset":23216,"byteLength":2556,"target":34962,"byteStride":12},{"buffer":0,"byteOffset":25772,"byteLength":1704,"target":34962,"byteStride":8},{"buffer":0,"byteOffset":27476,"byteLength":632,"target":34963},{"buffer":0,"byteOffset":28108,"byteLength":1248,"target":34962,"byteStride":12},{"buffer":0,"byteOffset":29356,"byteLength":1248,"target":34962,"byteStride":12},{"buffer":0,"byteOffset":30604,"byteLength":832,"target":34962,"byteStride":8},{"buffer":0,"byteOffset":31436,"byteLength":312,"target":34963},{"buffer":0,"byteOffset":31748,"byteLength":1248,"target":34962,"byteStride":12},{"buffer":0,"byteOffset":32996,"byteLength":1248,"target":34962,"byteStride":12},{"buffer":0,"byteOffset":34244,"byteLength":832,"target":34962,"byteStride":8},{"buffer":0,"byteOffset":35076,"byteLength":312,"target":34963},{"buffer":0,"byteOffset":35388,"byteLength":1248,"target":34962,"byteStride":12},{"buffer":0,"byteOffset":36636,"byteLength":1248,"target":34962,"byteStride":12},{"buffer":0,"byteOffset":37884,"byteLength":832,"target":34962,"byteStride":8},{"buffer":0,"byteOffset":38716,"byteLength":312,"target":34963}],"buffers":[{"byteLength":39028,"uri":"data:application/octet-stream;base64,"}],"accessors":[{"bufferView":0,"componentType":5126,"count":592,"max":[1.1353368759155273,0.4349318742752075,1.4394469261169434],"min":[-1.1353368759155273,-0.1945793777704239,-0.7668031454086304],"type":"VEC3"},{"bufferView":1,"componentType":5126,"count":592,"max":[0.9732038974761963,0.9721423387527466,0.9951739311218262],"min":[-0.9732038974761963,-0.9476599097251892,-0.9423035979270935],"type":"VEC3"},{"bufferView":2,"componentType":5126,"count":592,"max":[0.99609375,1],"min":[0,0.008679986000061035],"type":"VEC2"},{"bufferView":3,"componentType":5123,"count":858,"max":[591],"min":[0],"type":"SCALAR"},{"bufferView":4,"componentType":5126,"count":213,"max":[0.42033061385154724,0.5095556378364563,0.16865937411785126],"min":[-0.42033061385154724,-0.2925918698310852,-0.08759062737226486],"type":"VEC3"},{"bufferView":5,"componentType":5126,"count":213,"max":[0.9525257349014282,1,0.7829077243804932],"min":[-0.9525257349014282,-0.8047476410865784,-1],"type":"VEC3"},{"bufferView":6,"componentType":5126,"count":213,"max":[0.75390625,0.56640625],"min":[0.26662561297416687,0.35546875],"type":"VEC2"},{"bufferView":7,"componentType":5123,"count":315,"max":[212],"min":[0],"type":"SCALAR"},{"bufferView":8,"componentType":5126,"count":104,"max":[0.012500000186264515,-0.07500000298023224,0.0303568746894598],"min":[-0.012500000186264515,-0.21875,-0.03214312344789505],"type":"VEC3"},{"bufferView":9,"componentType":5126,"count":104,"max":[0.751329779624939,0.491292268037796,0.8216367363929749],"min":[-0.751329779624939,-0.6176266670227051,-0.8216333985328674],"type":"VEC3"},{"bufferView":10,"componentType":5126,"count":104,"max":[0.47969889640808105,0.629687488079071],"min":[0.39374154806137085,0.44140625],"type":"VEC2"},{"bufferView":11,"componentType":5123,"count":156,"max":[103],"min":[0],"type":"SCALAR"},{"bufferView":12,"componentType":5126,"count":104,"max":[0.02500000037252903,0.0062500000931322575,0.0910712480545044],"min":[-0.02500000037252903,-0.38749998807907104,-0.0964287519454956],"type":"VEC3"},{"bufferView":13,"componentType":5126,"count":104,"max":[0.7790650129318237,0.4433157444000244,0.812519907951355],"min":[-0.7790650129318237,-0.6269431114196777,-0.812519907951355],"type":"VEC3"},{"bufferView":14,"componentType":5126,"count":104,"max":[0.4795824885368347,0.6297374963760376],"min":[0.39367514848709106,0.44140625],"type":"VEC2"},{"bufferView":15,"componentType":5123,"count":156,"max":[103],"min":[0],"type":"SCALAR"},{"bufferView":16,"componentType":5126,"count":104,"max":[0.02500000037252903,0.21964313089847565,0.0910712480545044],"min":[-0.02500000037252903,-0.1741068810224533,-0.0964287519454956],"type":"VEC3"},{"bufferView":17,"componentType":5126,"count":104,"max":[0.7790650129318237,0.4433157444000244,0.812519907951355],"min":[-0.7790650129318237,-0.6269431114196777,-0.812519907951355],"type":"VEC3"},{"bufferView":18,"componentType":5126,"count":104,"max":[0.47963249683380127,0.629687488079071],"min":[0.39367514848709106,0.44140625],"type":"VEC2"},{"bufferView":19,"componentType":5123,"count":156,"max":[103],"min":[0],"type":"SCALAR"}],"materials":[{"pbrMetallicRoughness":{"metallicFactor":0,"roughnessFactor":1,"baseColorTexture":{"index":0}},"alphaMode":"MASK","alphaCutoff":0.05,"doubleSided":true}],"textures":[{"sampler":0,"source":0,"name":"texture.png"}],"samplers":[{"magFilter":9728,"minFilter":9728,"wrapS":33071,"wrapT":33071}],"images":[{"mimeType":"image/png","uri":"data:image/png;base64,"}],"meshes":[{"primitives":[{"mode":4,"attributes":{"POSITION":0,"NORMAL":1,"TEXCOORD_0":2},"indices":3,"material":0}]},{"primitives":[{"mode":4,"attributes":{"POSITION":4,"NORMAL":5,"TEXCOORD_0":6},"indices":7,"material":0}]},{"primitives":[{"mode":4,"attributes":{"POSITION":8,"NORMAL":9,"TEXCOORD_0":10},"indices":11,"material":0}]},{"primitives":[{"mode":4,"attributes":{"POSITION":12,"NORMAL":13,"TEXCOORD_0":14},"indices":15,"material":0}]},{"primitives":[{"mode":4,"attributes":{"POSITION":16,"NORMAL":17,"TEXCOORD_0":18},"indices":19,"material":0}]}]}