{"asset":{"version":"2.0","generator":"Blockbench 5.0.7 glTF exporter"},"scenes":[{"nodes":[0],"name":"blockbench_export"}],"scene":0,"nodes":[{"translation":[-2.6688053476566264e-19,-9.607699251563854e-18,-0.06249999999999996],"name":"missile_mesh","mesh":0}],"bufferViews":[{"buffer":0,"byteOffset":0,"byteLength":2112,"target":34962,"byteStride":12},{"buffer":0,"byteOffset":2112,"byteLength":2112,"target":34962,"byteStride":12},{"buffer":0,"byteOffset":4224,"byteLength":1408,"target":34962,"byteStride":8},{"buffer":0,"byteOffset":5632,"byteLength":504,"target":34963}],"buffers":[{"byteLength":6136,"uri":"data:application/octet-stream;base64,"}],"accessors":[{"bufferView":0,"componentType":5126,"count":176,"max":[0.0625,0.05624999850988388,0.4375],"min":[-0.0625,-0.05624999850988388,-0.34375],"type":"VEC3"},{"bufferView":1,"componentType":5126,"count":176,"max":[0.9971926808357239,1,0.7590622901916504],"min":[-0.9971926808357239,-1,-0.8010095953941345],"type":"VEC3"},{"bufferView":2,"componentType":5126,"count":176,"max":[0.9527154564857483,0.9843107461929321],"min":[0.03090221993625164,0.003228127956390381],"type":"VEC2"},{"bufferView":3,"componentType":5123,"count":252,"max":[175],"min":[0],"type":"SCALAR"}],"materials":[{"pbrMetallicRoughness":{"metallicFactor":0,"roughnessFactor":1,"baseColorTexture":{"index":0}},"alphaMode":"MASK","alphaCutoff":0.05,"doubleSided":true}],"textures":[{"sampler":0,"source":0,"name":"texture"}],"samplers":[{"magFilter":9728,"minFilter":9728,"wrapS":33071,"wrapT":33071}],"images":[{"mimeType":"image/png","uri":"data:image/png;base64,"}],"meshes":[{"primitives":[{"mode":4,"attributes":{"POSITION":0,"NORMAL":1,"TEXCOORD_0":2},"indices":3,"material":0}]}]}